<mxfile host="Electron" modified="2023-05-24T06:13:06.455Z" agent="Mozilla/5.0 (X11; Linux x86_64) AppleWebKit/537.36 (KHTML, like Gecko) draw.io/21.2.8 Chrome/112.0.5615.165 Electron/24.2.0 Safari/537.36" etag="Afu0n3BwRofC_KuVuMUI" version="21.2.8" type="device">
  <diagram name="Página-1" id="EnrBJhIqC56QHguEJ8rk">
    <mxGraphModel dx="2261" dy="852" grid="1" gridSize="10" guides="1" tooltips="1" connect="1" arrows="1" fold="1" page="1" pageScale="1" pageWidth="827" pageHeight="1169" math="0" shadow="0">
      <root>
        <mxCell id="0" />
        <mxCell id="1" parent="0" />
        <mxCell id="hGYG-Stdiatq9FKW4yIF-1" value="DIAGRAMA DE CASOS DE USO" style="rounded=1;whiteSpace=wrap;html=1;fillColor=#a20025;fontColor=#ffffff;strokeColor=#6F0000;fontSize=25;fontStyle=1" vertex="1" parent="1">
          <mxGeometry x="330" y="20" width="460" height="60" as="geometry" />
        </mxCell>
        <mxCell id="hGYG-Stdiatq9FKW4yIF-2" value="" style="whiteSpace=wrap;html=1;aspect=fixed;" vertex="1" parent="1">
          <mxGeometry x="-90" y="110" width="1180" height="1180" as="geometry" />
        </mxCell>
        <mxCell id="hGYG-Stdiatq9FKW4yIF-3" value="" style="shape=card;whiteSpace=wrap;html=1;rotation=-90;direction=east;" vertex="1" parent="1">
          <mxGeometry x="50" y="90" width="80" height="150" as="geometry" />
        </mxCell>
        <mxCell id="hGYG-Stdiatq9FKW4yIF-4" value="GamesApp" style="text;html=1;strokeColor=none;fillColor=none;align=center;verticalAlign=middle;whiteSpace=wrap;rounded=0;fontStyle=1" vertex="1" parent="1">
          <mxGeometry x="60" y="150" width="60" height="30" as="geometry" />
        </mxCell>
        <mxCell id="hGYG-Stdiatq9FKW4yIF-5" value="Profesor" style="shape=umlActor;verticalLabelPosition=bottom;verticalAlign=top;html=1;outlineConnect=0;" vertex="1" parent="1">
          <mxGeometry x="260" y="470" width="50" height="90" as="geometry" />
        </mxCell>
        <mxCell id="hGYG-Stdiatq9FKW4yIF-6" value="Estudiante" style="shape=umlActor;verticalLabelPosition=bottom;verticalAlign=top;html=1;outlineConnect=0;" vertex="1" parent="1">
          <mxGeometry x="250" y="780" width="50" height="90" as="geometry" />
        </mxCell>
        <mxCell id="hGYG-Stdiatq9FKW4yIF-7" value="Administrador" style="shape=umlActor;verticalLabelPosition=bottom;verticalAlign=top;html=1;outlineConnect=0;" vertex="1" parent="1">
          <mxGeometry x="260" y="260" width="50" height="90" as="geometry" />
        </mxCell>
        <mxCell id="hGYG-Stdiatq9FKW4yIF-8" value="Guest" style="shape=umlActor;verticalLabelPosition=bottom;verticalAlign=top;html=1;outlineConnect=0;" vertex="1" parent="1">
          <mxGeometry x="250" y="1130" width="50" height="90" as="geometry" />
        </mxCell>
        <mxCell id="hGYG-Stdiatq9FKW4yIF-9" value="Crear Usuario" style="ellipse;whiteSpace=wrap;html=1;" vertex="1" parent="1">
          <mxGeometry x="500" y="1135" width="160" height="80" as="geometry" />
        </mxCell>
        <mxCell id="hGYG-Stdiatq9FKW4yIF-11" value="" style="endArrow=none;html=1;rounded=0;exitX=0.5;exitY=0.5;exitDx=0;exitDy=0;exitPerimeter=0;entryX=0;entryY=0.5;entryDx=0;entryDy=0;" edge="1" parent="1" source="hGYG-Stdiatq9FKW4yIF-8" target="hGYG-Stdiatq9FKW4yIF-9">
          <mxGeometry width="50" height="50" relative="1" as="geometry">
            <mxPoint x="400" y="1110" as="sourcePoint" />
            <mxPoint x="450" y="1060" as="targetPoint" />
          </mxGeometry>
        </mxCell>
        <mxCell id="hGYG-Stdiatq9FKW4yIF-12" value="Crear Usuario Administrador" style="ellipse;whiteSpace=wrap;html=1;" vertex="1" parent="1">
          <mxGeometry x="490" y="150" width="160" height="80" as="geometry" />
        </mxCell>
        <mxCell id="hGYG-Stdiatq9FKW4yIF-13" value="" style="endArrow=none;html=1;rounded=0;exitX=0.5;exitY=0.5;exitDx=0;exitDy=0;exitPerimeter=0;entryX=0;entryY=0.5;entryDx=0;entryDy=0;" edge="1" parent="1" source="hGYG-Stdiatq9FKW4yIF-7" target="hGYG-Stdiatq9FKW4yIF-12">
          <mxGeometry width="50" height="50" relative="1" as="geometry">
            <mxPoint x="380" y="350" as="sourcePoint" />
            <mxPoint x="430" y="300" as="targetPoint" />
          </mxGeometry>
        </mxCell>
        <mxCell id="hGYG-Stdiatq9FKW4yIF-14" value="Editar Usuarios" style="ellipse;whiteSpace=wrap;html=1;" vertex="1" parent="1">
          <mxGeometry x="490" y="250" width="160" height="80" as="geometry" />
        </mxCell>
        <mxCell id="hGYG-Stdiatq9FKW4yIF-15" value="Generar Reportes" style="ellipse;whiteSpace=wrap;html=1;" vertex="1" parent="1">
          <mxGeometry x="490" y="350" width="160" height="80" as="geometry" />
        </mxCell>
        <mxCell id="hGYG-Stdiatq9FKW4yIF-16" value="Iniciar Sesión" style="ellipse;whiteSpace=wrap;html=1;" vertex="1" parent="1">
          <mxGeometry x="490" y="480" width="160" height="80" as="geometry" />
        </mxCell>
        <mxCell id="hGYG-Stdiatq9FKW4yIF-17" style="edgeStyle=orthogonalEdgeStyle;rounded=0;orthogonalLoop=1;jettySize=auto;html=1;exitX=0.5;exitY=1;exitDx=0;exitDy=0;" edge="1" parent="1" source="hGYG-Stdiatq9FKW4yIF-4" target="hGYG-Stdiatq9FKW4yIF-4">
          <mxGeometry relative="1" as="geometry" />
        </mxCell>
        <mxCell id="hGYG-Stdiatq9FKW4yIF-18" value="" style="endArrow=none;html=1;rounded=0;exitX=0.5;exitY=0.5;exitDx=0;exitDy=0;exitPerimeter=0;entryX=0;entryY=0.5;entryDx=0;entryDy=0;" edge="1" parent="1" source="hGYG-Stdiatq9FKW4yIF-7" target="hGYG-Stdiatq9FKW4yIF-14">
          <mxGeometry width="50" height="50" relative="1" as="geometry">
            <mxPoint x="310" y="480" as="sourcePoint" />
            <mxPoint x="360" y="430" as="targetPoint" />
          </mxGeometry>
        </mxCell>
        <mxCell id="hGYG-Stdiatq9FKW4yIF-19" value="" style="endArrow=none;html=1;rounded=0;exitX=0.5;exitY=0.5;exitDx=0;exitDy=0;exitPerimeter=0;entryX=0;entryY=0.5;entryDx=0;entryDy=0;" edge="1" parent="1" source="hGYG-Stdiatq9FKW4yIF-7" target="hGYG-Stdiatq9FKW4yIF-15">
          <mxGeometry width="50" height="50" relative="1" as="geometry">
            <mxPoint x="380" y="440" as="sourcePoint" />
            <mxPoint x="430" y="390" as="targetPoint" />
          </mxGeometry>
        </mxCell>
        <mxCell id="hGYG-Stdiatq9FKW4yIF-20" value="" style="endArrow=none;html=1;rounded=0;exitX=0.5;exitY=0.5;exitDx=0;exitDy=0;exitPerimeter=0;entryX=0;entryY=0.5;entryDx=0;entryDy=0;" edge="1" parent="1" source="hGYG-Stdiatq9FKW4yIF-7" target="hGYG-Stdiatq9FKW4yIF-16">
          <mxGeometry width="50" height="50" relative="1" as="geometry">
            <mxPoint x="440" y="670" as="sourcePoint" />
            <mxPoint x="490" y="620" as="targetPoint" />
          </mxGeometry>
        </mxCell>
        <mxCell id="hGYG-Stdiatq9FKW4yIF-21" value="" style="endArrow=none;html=1;rounded=0;exitX=0.5;exitY=0.5;exitDx=0;exitDy=0;exitPerimeter=0;entryX=0;entryY=0.5;entryDx=0;entryDy=0;" edge="1" parent="1" source="hGYG-Stdiatq9FKW4yIF-5" target="hGYG-Stdiatq9FKW4yIF-16">
          <mxGeometry width="50" height="50" relative="1" as="geometry">
            <mxPoint x="450" y="650" as="sourcePoint" />
            <mxPoint x="500" y="600" as="targetPoint" />
          </mxGeometry>
        </mxCell>
        <mxCell id="hGYG-Stdiatq9FKW4yIF-22" value="" style="endArrow=none;html=1;rounded=0;entryX=0;entryY=0.5;entryDx=0;entryDy=0;exitX=0.5;exitY=0.5;exitDx=0;exitDy=0;exitPerimeter=0;" edge="1" parent="1" source="hGYG-Stdiatq9FKW4yIF-6" target="hGYG-Stdiatq9FKW4yIF-16">
          <mxGeometry width="50" height="50" relative="1" as="geometry">
            <mxPoint x="370" y="780" as="sourcePoint" />
            <mxPoint x="420" y="730" as="targetPoint" />
          </mxGeometry>
        </mxCell>
        <mxCell id="hGYG-Stdiatq9FKW4yIF-23" value="Ver Notificaciones" style="ellipse;whiteSpace=wrap;html=1;" vertex="1" parent="1">
          <mxGeometry x="490" y="570" width="160" height="80" as="geometry" />
        </mxCell>
        <mxCell id="hGYG-Stdiatq9FKW4yIF-24" value="" style="endArrow=none;html=1;rounded=0;exitX=0.5;exitY=0.5;exitDx=0;exitDy=0;exitPerimeter=0;entryX=0;entryY=0.5;entryDx=0;entryDy=0;" edge="1" parent="1" source="hGYG-Stdiatq9FKW4yIF-5" target="hGYG-Stdiatq9FKW4yIF-23">
          <mxGeometry width="50" height="50" relative="1" as="geometry">
            <mxPoint x="500" y="770" as="sourcePoint" />
            <mxPoint x="550" y="720" as="targetPoint" />
          </mxGeometry>
        </mxCell>
        <mxCell id="hGYG-Stdiatq9FKW4yIF-26" value="" style="endArrow=none;html=1;rounded=0;entryX=0;entryY=0.5;entryDx=0;entryDy=0;exitX=0.5;exitY=0.5;exitDx=0;exitDy=0;exitPerimeter=0;" edge="1" parent="1" source="hGYG-Stdiatq9FKW4yIF-6" target="hGYG-Stdiatq9FKW4yIF-23">
          <mxGeometry width="50" height="50" relative="1" as="geometry">
            <mxPoint x="440" y="830" as="sourcePoint" />
            <mxPoint x="490" y="780" as="targetPoint" />
          </mxGeometry>
        </mxCell>
        <mxCell id="hGYG-Stdiatq9FKW4yIF-27" value="Consultar Rankings" style="ellipse;whiteSpace=wrap;html=1;" vertex="1" parent="1">
          <mxGeometry x="490" y="870" width="160" height="80" as="geometry" />
        </mxCell>
        <mxCell id="hGYG-Stdiatq9FKW4yIF-28" value="" style="endArrow=none;html=1;rounded=0;exitX=0.5;exitY=0.5;exitDx=0;exitDy=0;exitPerimeter=0;entryX=0;entryY=0.5;entryDx=0;entryDy=0;" edge="1" parent="1" source="hGYG-Stdiatq9FKW4yIF-6" target="hGYG-Stdiatq9FKW4yIF-27">
          <mxGeometry width="50" height="50" relative="1" as="geometry">
            <mxPoint x="420" y="920" as="sourcePoint" />
            <mxPoint x="470" y="870" as="targetPoint" />
          </mxGeometry>
        </mxCell>
        <mxCell id="hGYG-Stdiatq9FKW4yIF-30" value="Crear Juego" style="ellipse;whiteSpace=wrap;html=1;" vertex="1" parent="1">
          <mxGeometry x="490" y="660" width="160" height="80" as="geometry" />
        </mxCell>
        <mxCell id="hGYG-Stdiatq9FKW4yIF-31" value="" style="endArrow=none;html=1;rounded=0;exitX=0.5;exitY=0.5;exitDx=0;exitDy=0;exitPerimeter=0;entryX=0;entryY=0.5;entryDx=0;entryDy=0;" edge="1" parent="1" source="hGYG-Stdiatq9FKW4yIF-5" target="hGYG-Stdiatq9FKW4yIF-30">
          <mxGeometry width="50" height="50" relative="1" as="geometry">
            <mxPoint x="450" y="790" as="sourcePoint" />
            <mxPoint x="500" y="740" as="targetPoint" />
          </mxGeometry>
        </mxCell>
        <mxCell id="hGYG-Stdiatq9FKW4yIF-32" value="" style="endArrow=none;html=1;rounded=0;entryX=0;entryY=0.5;entryDx=0;entryDy=0;exitX=0.5;exitY=0.5;exitDx=0;exitDy=0;exitPerimeter=0;" edge="1" parent="1" source="hGYG-Stdiatq9FKW4yIF-5" target="hGYG-Stdiatq9FKW4yIF-15">
          <mxGeometry width="50" height="50" relative="1" as="geometry">
            <mxPoint x="230" y="650" as="sourcePoint" />
            <mxPoint x="280" y="600" as="targetPoint" />
          </mxGeometry>
        </mxCell>
        <mxCell id="hGYG-Stdiatq9FKW4yIF-33" value="Consultar Medallas" style="ellipse;whiteSpace=wrap;html=1;" vertex="1" parent="1">
          <mxGeometry x="490" y="785" width="160" height="80" as="geometry" />
        </mxCell>
        <mxCell id="hGYG-Stdiatq9FKW4yIF-34" value="" style="endArrow=none;html=1;rounded=0;exitX=0.5;exitY=0.5;exitDx=0;exitDy=0;exitPerimeter=0;entryX=0;entryY=0.5;entryDx=0;entryDy=0;" edge="1" parent="1" source="hGYG-Stdiatq9FKW4yIF-6" target="hGYG-Stdiatq9FKW4yIF-33">
          <mxGeometry width="50" height="50" relative="1" as="geometry">
            <mxPoint x="290" y="1000" as="sourcePoint" />
            <mxPoint x="340" y="950" as="targetPoint" />
          </mxGeometry>
        </mxCell>
        <mxCell id="hGYG-Stdiatq9FKW4yIF-35" value="Unirse a un Juego" style="ellipse;whiteSpace=wrap;html=1;" vertex="1" parent="1">
          <mxGeometry x="500" y="960" width="160" height="80" as="geometry" />
        </mxCell>
        <mxCell id="hGYG-Stdiatq9FKW4yIF-36" value="" style="endArrow=none;html=1;rounded=0;exitX=0.5;exitY=0.5;exitDx=0;exitDy=0;exitPerimeter=0;entryX=0;entryY=0.5;entryDx=0;entryDy=0;" edge="1" parent="1" source="hGYG-Stdiatq9FKW4yIF-6" target="hGYG-Stdiatq9FKW4yIF-35">
          <mxGeometry width="50" height="50" relative="1" as="geometry">
            <mxPoint x="360" y="1060" as="sourcePoint" />
            <mxPoint x="410" y="1010" as="targetPoint" />
          </mxGeometry>
        </mxCell>
      </root>
    </mxGraphModel>
  </diagram>
</mxfile>
